<svg version="1.2" xmlns="http://www.w3.org/2000/svg" viewBox="0 0 200 200" width="200" height="200">
	<title>logo-svg</title>
	<style>
		.s0 { fill: #ffffff } 
		.s1 { opacity: .3;fill: #000000 } 
	</style>
	<path id="Layer" class="s0" d="m28.1 100.8q-0.1 0.6-0.2 1.1 0 0.6-0.2 1.2-0.2 0.5-0.4 1.1-0.3 0.5-0.6 1c-1.2 2-3.7 4.4-8.7 4.4-4 0-7.1-1.7-8.8-4.7q-0.3-0.4-0.5-0.9-0.2-0.4-0.3-0.9-0.2-0.5-0.3-1-0.1-0.5-0.1-1v-0.2q0-0.1 0-0.2 0.1-0.1 0.2-0.2 0.1-0.1 0.2-0.2 0.1 0 0.2 0h4.2q0.1-0.1 0.2 0 0.1 0 0.2 0.1 0 0.1 0.1 0.2 0 0.1 0 0.2 0 0.2 0.1 0.5 0.1 0.2 0.1 0.4 0.1 0.2 0.2 0.3 0.1 0.2 0.2 0.4c0.7 1.2 2.1 1.8 4.1 1.8 2 0 3.5-0.5 4.1-1.7q0.1-0.2 0.2-0.4 0.1-0.2 0.2-0.4 0.1-0.2 0.1-0.4 0-0.2 0.1-0.5 0-0.4-0.2-0.9-0.1-0.4-0.4-0.8-0.2-0.4-0.6-0.7-0.4-0.2-0.8-0.4-0.4-0.1-0.7-0.2-0.3-0.1-0.7-0.2-0.3 0-0.6-0.1-0.4 0-0.7-0.1-0.6 0-1.2 0-0.6-0.1-1.2-0.2-0.6-0.2-1.2-0.3-0.6-0.2-1.1-0.5-1.2-0.4-2.3-1.1-1-0.8-1.7-1.8-0.8-1.1-1.1-2.3-0.4-1.2-0.4-2.5 0.1-0.8 0.2-1.7 0.2-0.8 0.6-1.6 0.3-0.8 0.8-1.5 0.4-0.7 1-1.3c1.8-1.8 4.4-2.7 7.6-2.7q1-0.1 2 0.1 0.9 0.2 1.9 0.5 0.9 0.4 1.7 0.9 0.9 0.5 1.6 1.2 0.6 0.7 1.1 1.4 0.5 0.8 0.8 1.6 0.4 0.8 0.6 1.7 0.3 0.8 0.4 1.7l-0.1 0.1q0.1 0.1 0 0.3 0 0.1-0.1 0.2-0.1 0.1-0.2 0.2-0.2 0-0.3 0h-4.2q-0.1 0-0.2 0-0.1-0.1-0.1-0.2-0.1 0-0.2-0.1 0-0.1 0-0.2l-0.1-0.1q0-0.2-0.1-0.4 0-0.3-0.1-0.5-0.1-0.3-0.2-0.5 0-0.2-0.1-0.4c-0.6-1.1-1.5-2.2-4.2-2.2q-0.5-0.1-1-0.1-0.5 0.1-1 0.3-0.4 0.1-0.9 0.4-0.4 0.2-0.8 0.5-0.2 0.3-0.4 0.5-0.2 0.3-0.3 0.6-0.1 0.3-0.2 0.6-0.1 0.3-0.1 0.6 0 0.5 0.1 1 0.1 0.4 0.4 0.8 0.3 0.4 0.7 0.7 0.3 0.2 0.8 0.4 0.3 0.1 0.6 0.2 0.4 0.1 0.7 0.1 0.3 0.1 0.7 0.1 0.3 0.1 0.7 0.1 0.6 0 1.2 0.1 0.6 0 1.2 0.1 0.6 0.2 1.2 0.4 0.5 0.1 1.1 0.4 1.2 0.4 2.2 1.2 1.1 0.7 1.8 1.8 0.7 1 1.1 2.3 0.4 1.2 0.4 2.5z"/>
	<path id="Layer" class="s0" d="m49.8 84.5q0 0.1-0.1 0.3 0 0.1-0.1 0.2-0.2 0.1-0.3 0.1-0.1 0.1-0.3 0h-6.6v23.4q0 0.2 0 0.3-0.1 0.2-0.1 0.3-0.1 0.1-0.3 0.2-0.1 0-0.2 0.1h-4.1q-0.2-0.1-0.3-0.1-0.1-0.1-0.2-0.2-0.1-0.1-0.1-0.3-0.1-0.1-0.1-0.3v-23.3h-6.7q-0.2 0-0.3 0-0.1-0.1-0.2-0.2-0.1-0.1-0.1-0.2-0.1-0.1-0.1-0.3v-4q0-0.2 0.1-0.3 0-0.1 0.1-0.2 0.1-0.1 0.2-0.1 0.1-0.1 0.3-0.1h18.7q0.1 0 0.3 0 0.1 0.1 0.2 0.2 0.2 0.1 0.2 0.2 0.1 0.1 0.1 0.3z"/>
	<path id="Layer" fill-rule="evenodd" class="s0" d="m72.9 108.5q0 0 0 0 0 0.1 0 0.1 0 0.1 0 0.1 0 0 0 0.1 0.1 0.1 0 0.2 0 0.2-0.1 0.3-0.1 0.1-0.3 0.1-0.1 0.1-0.2 0.1h-4.6q-0.1 0-0.2 0-0.1 0-0.1-0.1-0.1 0-0.1-0.1-0.1 0-0.1-0.1l-0.1-0.1-5.9-10.4-0.8-1.3h-2.6v11.4q0 0.2 0 0.3-0.1 0.1-0.2 0.2-0.1 0.1-0.2 0.2-0.1 0-0.2 0h-4.1q-0.1 0-0.3 0-0.1-0.1-0.2-0.2-0.1-0.1-0.1-0.2-0.1-0.1-0.1-0.3v-28.3q0-0.2 0.1-0.3 0-0.1 0.1-0.2 0.1-0.1 0.2-0.1 0.2-0.1 0.3-0.1h10.1q1 0 2 0.1 1.1 0.2 2.1 0.5 1 0.3 1.9 0.8 0.9 0.5 1.7 1.1 0.7 0.6 1.3 1.3 0.6 0.7 0.9 1.5 0.4 0.8 0.6 1.7 0.2 0.9 0.2 1.7c0 3.7-2.6 7.4-7.6 8.5l0.2 0.3 0.7 1.3 5.6 9.9zm-15-16.5c0.4 0 6.4 0 6.7-0.1 2.8-0.4 4.1-1.9 4.1-3.2 0-1.7-1.6-3.4-5.4-3.4h-5.4z"/>
	<path id="Layer" class="s0" d="m98 108.8q0 0.2 0 0.3-0.1 0.1-0.2 0.2-0.1 0.1-0.2 0.2-0.1 0-0.3 0h-18.8q-0.1 0-0.3 0-0.1-0.1-0.2-0.2-0.1-0.1-0.1-0.2-0.1-0.1-0.1-0.3v-28.3q0-0.2 0.1-0.3 0-0.1 0.1-0.2 0.1-0.1 0.2-0.1 0.2-0.1 0.3-0.1h18.2q0.1 0 0.3 0.1 0.1 0 0.2 0.1 0.1 0.1 0.1 0.2 0.1 0.1 0.1 0.3v4.1q0 0.1-0.1 0.2 0 0.1-0.1 0.2-0.1 0.1-0.2 0.2-0.2 0-0.3 0h-13.5v6.8h12.8q0.1 0 0.3 0 0.1 0.1 0.2 0.2 0.1 0.1 0.1 0.2 0.1 0.1 0.1 0.3v4q0 0.1-0.1 0.3 0 0.1-0.1 0.2-0.1 0.1-0.2 0.1-0.2 0.1-0.3 0.1h-12.8v6.7h14.3q0.1 0 0.2 0.1 0.1 0 0.2 0.1 0.1 0.1 0.2 0.2 0 0.1 0 0.3z"/>
	<path id="Layer" class="s0" d="m123.1 108.8q0 0.2-0.1 0.3 0 0.1-0.1 0.2-0.1 0.1-0.2 0.2-0.2 0-0.3 0h-18.9q-0.1 0-0.2 0-0.2-0.1-0.3-0.2 0-0.1-0.1-0.2 0-0.1 0-0.3v-28.3q0-0.2 0-0.3 0.1-0.1 0.1-0.2 0.1-0.1 0.3-0.1 0.1-0.1 0.2-0.1h18.2q0.2 0 0.3 0.1 0.1 0 0.2 0.1 0.1 0.1 0.2 0.2 0 0.1 0 0.3v4.1q0 0.1 0 0.2-0.1 0.1-0.2 0.2-0.1 0.1-0.2 0.2-0.1 0-0.3 0h-13.4v6.8h12.8q0.1 0 0.2 0 0.2 0.1 0.2 0.2 0.1 0.1 0.2 0.2 0 0.1 0 0.3v4q0 0.1 0 0.3-0.1 0.1-0.2 0.2 0 0.1-0.2 0.1-0.1 0.1-0.2 0.1h-12.8v6.7h14.2q0.1 0 0.2 0 0.2 0.1 0.3 0.2 0.1 0.1 0.1 0.2 0.1 0.1 0.1 0.3v4z"/>
	<path id="Layer" class="s0" d="m145.9 84.5q0 0.1-0.1 0.3-0.1 0.1-0.2 0.2-0.1 0.1-0.2 0.1-0.2 0.1-0.3 0h-6.6v23.4q0 0.2-0.1 0.3 0 0.2-0.1 0.3-0.1 0.1-0.2 0.2-0.1 0-0.3 0.1h-4.1q-0.1-0.1-0.2-0.1-0.2-0.1-0.3-0.2 0-0.1-0.1-0.3 0-0.1 0-0.3v-23.3h-6.8q-0.1 0-0.2 0-0.1-0.1-0.2-0.2-0.1-0.1-0.2-0.2 0-0.1 0-0.3v-4q0-0.2 0-0.3 0.1-0.1 0.2-0.2 0.1-0.1 0.2-0.1 0.1-0.1 0.2-0.1h18.8q0.1 0 0.3 0 0.1 0.1 0.2 0.2 0.1 0.1 0.2 0.2 0.1 0.1 0.1 0.3z"/>
	<path id="Layer" class="s1" d="m154.3 85c0-5.7 4.6-10.3 10.3-10.3h19.4c5.7 0 10.3 4.6 10.3 10.3v19.4c0 5.7-4.6 10.3-10.3 10.3h-19.4c-5.7 0-10.3-4.6-10.3-10.3z"/>
	<path id="Layer" fill-rule="evenodd" class="s0" d="m161.1 83.7h4q0.7 0 1.4 0 0.6 0 1.3 0 0.7 0.1 1.4 0.1 0.7 0.1 1.3 0.2 0.4 0.1 0.7 0.2 0.3 0.2 0.6 0.4 0.3 0.2 0.6 0.4 0.2 0.3 0.4 0.6 0.3 0.5 0.5 0.9 0.2 0.5 0.3 1.1 0.1 0.5 0.1 1 0.1 0.5 0 1.1 0.1 0.4 0.1 0.8-0.1 0.5-0.1 0.9-0.1 0.4-0.3 0.8-0.1 0.5-0.3 0.9-0.2 0.2-0.5 0.4-0.3 0.2-0.6 0.3-0.4 0.1-0.7 0.2-0.3 0.1-0.7 0.1 0.3 0 0.6 0.1 0.3 0.1 0.6 0.2 0.3 0.2 0.6 0.4 0.2 0.2 0.5 0.4 0.1 0.1 0.2 0.3 0.1 0.1 0.2 0.3 0.1 0.1 0.2 0.3 0 0.2 0.1 0.4 0 0.4 0.1 0.8 0 0.4 0 0.8 0.1 0.4 0.1 0.8 0 0.4-0.1 0.8v5.7h-5.2v-7.2q0-0.2 0-0.5 0-0.3 0-0.6-0.1-0.2-0.1-0.5-0.1-0.3-0.2-0.5-0.3-0.4-1.4-0.5v9.9h-5.7zm5.7 3.7v4.8q0.1 0.1 0.3 0 0.2 0 0.3 0 0.2 0 0.4-0.1 0.1-0.1 0.3-0.1 0.4-0.3 0.4-1.7v-1.2q0-0.2 0-0.4 0-0.2-0.1-0.3 0-0.2-0.1-0.4-0.1-0.1-0.2-0.3-0.1-0.1-0.3-0.1-0.2-0.1-0.3-0.2-0.2 0-0.4 0-0.2 0-0.3 0z"/>
	<path id="Layer" fill-rule="evenodd" class="s0" d="m175.9 83.7h5.7q0.5 0 0.9 0 0.5 0 0.9 0.1 0.5 0 0.9 0.1 0.4 0.1 0.9 0.2 0.2 0 0.5 0.1 0.2 0.1 0.5 0.3 0.2 0.1 0.4 0.3 0.3 0.1 0.5 0.3 0.1 0.2 0.2 0.4 0.2 0.2 0.3 0.4 0.1 0.2 0.2 0.4 0.1 0.2 0.1 0.5 0.1 0.4 0.1 0.7 0.1 0.4 0.1 0.8 0 0.4 0 0.7 0 0.4 0 0.8v1.9q0 0.4 0 0.7 0 0.4 0 0.8-0.1 0.4-0.2 0.7-0.1 0.4-0.2 0.8-0.1 0.2-0.3 0.4-0.2 0.3-0.4 0.5-0.2 0.1-0.4 0.3-0.2 0.1-0.5 0.2-0.3 0.2-0.7 0.3-0.4 0.1-0.8 0.1-0.3 0.1-0.7 0.1-0.4 0.1-0.8 0.1h-1.5v8.7h-5.7zm5.7 3.8v5.5h0.4q0.2 0 0.3 0 0.2 0 0.3 0 0.1-0.1 0.3-0.2 0.1-0.1 0.2-0.2 0.1-0.1 0.2-0.3 0-0.2 0.1-0.4 0-0.2 0-0.4 0-0.3 0-0.5v-1.8q0-0.2 0-0.3 0-0.2 0-0.4-0.1-0.2-0.2-0.4 0-0.2-0.1-0.3-0.2-0.1-0.4-0.2-0.2-0.1-0.3-0.1-0.2-0.1-0.4-0.1-0.2 0-0.4 0.1z"/>
</svg>